<svg version="1" xmlns="http://www.w3.org/2000/svg" width="1542.667" height="1542.667" viewBox="0 0 1157.000000 1157.000000"><path d="M154.8 23.5c-.2.2-3.7.5-7.8.9-4.1.3-8.4.8-9.5 1-9.7 2.1-13 3-19.7 5.1C85.7 40.8 55.6 66 39.1 96.4c-41.1 75.7-2.9 171 79.5 198 26.8 8.9 61 8.7 87-.5 35.2-12.4 63.3-36.6 79.2-68.4 8.3-16.6 13.2-32.7 14.7-48.5.6-6.1.6-25.1.1-29-.2-1.4-.7-4.5-1.1-7-2.6-18.2-10-37.5-20.3-53.5-10.4-16.2-23.3-29.4-39.2-40-18.4-12.2-33.8-18.4-54.9-22.1-7.8-1.3-28.4-2.6-29.3-1.9zM569.7 23.6c-.1.1-3.4.5-7.3.8-3.9.4-8.5 1.1-10.2 1.6-1.8.5-3.5.9-3.7.9-4.6-.1-20.9 5.6-33 11.7-33.6 16.6-59.9 48-70.5 83.9-4.3 14.8-5.8 25.9-5.4 41.9.1 8.3.5 16.2.8 17.6.2 1.4.8 4.3 1.1 6.5 1 6 5.2 19.9 8.1 26.8 7.6 18.3 20 36 33.8 48.6 7.4 6.8 9.1 8.2 17.1 13.5 19.8 13.2 39.5 20.4 64 23.2 4.1.5 24.4.4 27.5-.1 1.4-.2 5-.7 8-1.1 19.9-2.5 48.7-15.3 65.5-29.1 26.2-21.6 43.6-51.6 49.5-85.2 1.8-10.5 2.1-35 .6-42.6-.4-1.7-1.1-5.5-1.7-8.5-6.2-32.5-27.8-65.3-55.9-85.2-18.7-13.2-41-21.7-64-24.4-5.2-.6-23.8-1.3-24.3-.8zM986.7 23.7c-.1.1-2.9.4-6.3.7-6.8.7-10.2 1.3-15.9 2.7-2.2.5-5.1 1.2-6.5 1.4-4.4.9-19.1 6.7-26.4 10.4C923 43.3 911 51 911 52.2c0 .4-.5.8-1 .8-2.5 0-18.9 16.4-26.2 26.2-11.6 15.7-18 28.8-23.2 47.9-2.3 8.5-3 12.2-4.1 23.9-.5 4.4-.5 16.3-.1 21 1.3 14.1 3 23 6.3 33 1.7 5.4 8.4 21.3 9.2 22 .3.3 1.3 1.8 2.1 3.5 1.6 3.3 8.7 14.3 10.4 16.1.6.7 2.7 3.1 4.6 5.5 3.1 3.9 9 9.7 17.5 17.4 1.6 1.4 4.2 3.4 5.7 4.3 1.6.9 2.8 2 2.8 2.4 0 .4.5.8 1.2.8.6 0 2.5 1 4.2 2.3 5.3 4 20.8 11.4 30.5 14.6 15.9 5.3 24.7 6.6 43.6 6.5 9.4-.1 18.1-.4 19.5-.6 1.4-.3 4.3-.8 6.6-1.2 2.2-.4 5.6-1.1 7.5-1.7 1.9-.6 5.8-1.7 8.8-2.5 5.2-1.4 7.2-2.2 17.1-6.7 8.3-3.8 19.9-11 19.3-12-.3-.6-.1-.7.5-.3.6.3 2.3-.5 3.8-1.9s3-2.5 3.5-2.5c1.3 0 20.3-19.5 23.4-24 1.6-2.5 3.2-4.7 3.5-5 1.2-1 6.6-9.6 8.5-13.5 1.1-2.2 2.3-4.2 2.8-4.3.4-.2.7-1.1.7-2.1 0-.9.4-2.1.8-2.7 1.2-1.2 4.6-10.3 7.1-18.9 2.3-7.5 2.7-9.6 3.6-16 .4-2.2.9-5.4 1.1-7 .7-3.7.7-25.6 0-31-.4-3.9-3.3-19-4-21-.2-.6-.4-1.3-.5-1.7-.1-.4-1.4-4.3-3-8.5-4.4-11.8-8.6-20.2-14.4-28.8-1.5-2.2-3.8-5.6-5.1-7.6-3.7-5.4-19.3-21.1-26.6-26.6-20.8-15.7-44.8-25.3-70-27.9-5.9-.6-21.9-1.1-22.3-.7zM148.8 440.5c-.2.1-3 .6-6.3 1-15.2 1.7-38.7 9.6-49.5 16.5-14.4 9.3-21.5 14.8-29.3 22.5-27.1 27-41.1 60.9-41.1 99.5 0 56.7 36.3 108.7 89.9 128.9 9.7 3.6 21.7 6.7 30.5 7.8 8 1 29.7 1 36.5 0 23.8-3.3 49-13.7 66.5-27.5 8.5-6.7 24.7-24 30.3-32.4 10-14.9 18.9-36.2 21.1-50.2.4-2.2.9-4.8 1.1-6 1.7-7.4 2-27.1.5-39.2-2.4-19.8-11.2-43.8-21.4-58.2-1.8-2.6-4.8-6.8-6.6-9.4-5.5-7.8-22-23-32.6-30.1-18.3-12.1-34-18.2-58.4-22.4-3-.5-30.7-1.2-31.2-.8zM145.5 857.5c-.5.1-4.4.8-8.5 1.5-9.6 1.6-28.9 7.9-37.9 12.5-31.7 15.9-58 46.1-69.1 79.2-8.2 24.5-9.7 48.7-4.5 73.8 8.5 40.9 36.1 76.5 74.2 95.4 10.4 5.2 21.3 9.1 30.3 11 3 .6 6.6 1.4 8 1.6 4.7 1 15.5 1.9 23.5 1.9 36.6 0 71-14.2 97.5-40.4 30.9-30.5 45.5-72.8 40.1-116.1-4.3-33.7-23.3-68.4-49-88.9-2.4-1.9-4.8-4-5.5-4.5-5.6-5.1-22.6-14.3-35-18.9-16.1-6.1-25.7-7.8-45.6-8.1-9.6-.2-17.9-.2-18.5 0z"/></svg>